Coordinates
version=1
nRows=13
nColumns=22
inDegrees=yes

Units are S.I. units (second, meters, Newtons, ...)
If the header above contains a line with 'inDegrees', this indicates whether rotational values are in degrees (yes) or radians (no).

endheader
time	pelvis_tilt	pelvis_list	pelvis_rotation	pelvis_tx	pelvis_ty	pelvis_tz	hip_flexion_r	hip_adduction_r	hip_rotation_r	knee_angle_r	ankle_angle_r	subtalar_angle_r	hip_flexion_l	hip_adduction_l	hip_rotation_l	knee_angle_l	ankle_angle_l	subtalar_angle_l	lumbar_extension	lumbar_bending	lumbar_rotation
      1.81000000	     -8.20206438	      1.67541024	    -32.05348607	     -0.94158637	      0.88118379	     -0.38471293	     17.19803751	      0.26328060	      0.94628115	    -23.75386766	     15.06920615	      2.33338799	      6.33760559	     -1.00658678	     -1.74969834	    -10.41248941	     18.35949806	     -2.73679474	      2.08741968	      1.00595476	     11.76815139
      1.82000000	     -8.06731997	      1.54193857	    -32.03477362	     -0.94039330	      0.88130867	     -0.38536732	     18.05738293	      0.21985162	      0.80756683	    -25.73200036	     14.77577384	      2.65020398	      6.07246699	     -0.97199046	     -1.73744321	    -10.37032835	     18.42605060	     -2.70529424	      1.86154071	      1.06334033	     11.75652278
      1.83000000	     -7.94181334	      1.40342602	    -32.02680854	     -0.93922036	      0.88148183	     -0.38595211	     19.00783360	      0.19038115	      0.68086335	    -27.84381296	     14.34521815	      3.00931846	      5.78941083	     -0.95349135	     -1.74664019	    -10.28743192	     18.46648560	     -2.66551649	      1.63297796	      1.12514185	     11.74389495
      1.84000000	     -7.85107149	      1.25958876	    -32.02986385	     -0.93804990	      0.88166058	     -0.38647901	     20.06168316	      0.18613243	      0.56552535	    -30.06070807	     13.76598403	      3.50066669	      5.50920979	     -0.96475773	     -1.78771506	    -10.15989408	     18.50349609	     -2.61523747	      1.42897066	      1.21628819	     11.71401646
      1.85000000	     -7.71049621	      1.11512434	    -32.04073084	     -0.93690320	      0.88193224	     -0.38697031	     21.14834356	      0.15545976	      0.45564828	    -32.38223846	     13.09441234	      3.88561730	      5.16695086	     -0.94958718	     -1.82120439	    -10.00458338	     18.46140827	     -2.54413641	      1.15861453	      1.27190425	     11.71199192
      1.86000000	     -7.61111054	      0.96850079	    -32.04961039	     -0.93574089	      0.88215560	     -0.38737911	     22.31811208	      0.14615836	      0.34418589	    -34.74756090	     12.32867112	      4.48177032	      4.83769169	     -0.96721433	     -1.89539797	     -9.81247361	     18.48406094	     -2.44535063	      0.92755486	      1.35331932	     11.65658171
      1.87000000	     -7.46894314	      0.80449806	    -32.05057945	     -0.93456131	      0.88244637	     -0.38775499	     23.47622827	      0.11782645	      0.21020442	    -37.13009851	     11.53284894	      5.04757328	      4.44377694	     -0.97682977	     -1.96065491	     -9.59621854	     18.45223846	     -2.32042825	      0.63136786	      1.42387633	     11.60597700
      1.88000000	     -7.30094195	      0.62079967	    -32.02858326	     -0.93333646	      0.88278630	     -0.38806552	     24.60737465	      0.07691397	      0.03970349	    -39.47484974	     10.73874389	      5.57691486	      3.99557141	     -0.99339266	     -2.02558066	     -9.34816326	     18.38543375	     -2.17180979	      0.29484357	      1.49142194	     11.51737346
      1.89000000	     -7.09629076	      0.42298769	    -31.97871154	     -0.93201200	      0.88316375	     -0.38829778	     25.68665183	      0.00793851	     -0.17481432	    -41.75391411	     10.05374452	      5.84939752	      3.46352608	     -1.00286423	     -2.06014852	     -9.03108610	     18.30538731	     -2.03817324	     -0.08243298	      1.54647775	     11.38061901
      1.90000000	     -6.89193885	      0.21139780	    -31.89051950	     -0.93061355	      0.88352985	     -0.38851684	     26.73523395	     -0.07579853	     -0.43349774	    -43.92995665	      9.49118819	      6.09713408	      2.92505275	     -1.02467783	     -2.07763092	     -8.71812476	     18.23690579	     -1.88008958	     -0.47198999	      1.62056258	     11.19103871
      1.91000000	     -6.68309869	     -0.02623578	    -31.77062268	     -0.92913636	      0.88390966	     -0.38864643	     27.72542099	     -0.15900846	     -0.73877401	    -45.97481612	      9.08195313	      6.20619169	      2.36073164	     -1.07365513	     -2.06827386	     -8.40178741	     18.18955449	     -1.72496763	     -0.87816170	      1.71103586	     10.95730937
      1.92000000	     -6.47471147	     -0.26177498	    -31.62444153	     -0.92756991	      0.88427007	     -0.38872193	     28.67565782	     -0.26708120	     -1.08094817	    -47.87768372	      8.85183123	      6.15215059	      1.79267956	     -1.12330167	     -2.03224184	     -8.08304041	     18.14356222	     -1.56721213	     -1.28048031	      1.80434874	     10.69284379
      1.93000000	     -6.26784940	     -0.48883679	    -31.45767225	     -0.92591213	      0.88461106	     -0.38872545	     29.58596881	     -0.40454001	     -1.46124549	    -49.62728749	      8.78151763	      5.90837879	      1.23115820	     -1.16856946	     -1.97085037	     -7.77481147	     18.08542396	     -1.41667950	     -1.67001770	      1.89242975	     10.39661261
